<svg xmlns="http://www.w3.org/2000/svg" viewBox="0 0 48 48" width="24" height="24">
  <circle cx="24" cy="24" r="22" fill="#22c55e"/>
  <path d="M20 32c-2.2 0-4-1.8-4-4s1.8-4 4-4c.7 0 1.4.2 2 .5V16l10-2v10.5c0 2.2-1.8 4-4 4s-4-1.8-4-4c0-.7.2-1.4.5-2H22v9.5c0 2.2-1.8 4-4 4h2z" fill="#ffffff"/>
  <path d="M32 16c1.8 1.6 1.8 6.4 0 8" stroke="#ffffff" stroke-width="2" stroke-linecap="round" fill="none"/>
  <path d="M35 13c3.2 3 3.2 12 0 15" stroke="#ffffff" stroke-width="2" stroke-linecap="round" fill="none" opacity="0.7"/>
</svg>
